
<global>
amp_veltrack=6.0000
ampeg_attack=0.005
ampeg_release=0.50
master-volume=9.0
</global>

<group>
group_label=PP
lpc_hicc1=42
lpc_locc1=0

<region>
end=282729
hikey=B6
hivel=127
lokey=G5
loop_end=261736
loop_mode=loop_continuous
loop_start=70682
loop_xfade=50457
lovel=0
lpc=wiI3QUDxpMF5u39BiN8Uwc7f9EDVhkrA0RncPuUpZr6j3BE/lYNdv66y2z+Q2zHAuu7qQPwb9MBw855AG5JvwFlJhECYTiTAX3gCQNbUXL9kETtAjGaTwMf12T/L4MI/
lpc_rms=-45.38
pitch_keycenter=G5
sample=SoloCello_sustain_PP_G5.opus
tune=100
</region>

<region>
end=297705
hivel=127
key=G4
loop_end=275600
loop_mode=loop_continuous
loop_start=74426
loop_xfade=53129
lovel=0
lpc=f1kgQcmYtsE7WLtBQE+HwQ2xUUGSCyvBlbf5QIrjzMCeeLNAg/SywD3GyECXMrPAgv4WQNG2CD++iai/xHItPy+Jcb9Gd9Q/IXYGwIlADkDMFGK/mtBtPwTEib93JiE/
lpc_rms=-54.74
sample=SoloCello_sustain_PP_G4.opus
</region>

<region>
end=300278
hivel=127
key=G3
loop_end=277982
loop_mode=loop_continuous
loop_start=75069
loop_xfade=53588
lovel=0
lpc=wpv4QS6uksIaFnJCR5PfwY3etkFvfpHB4eXbQD40u8BBQAlB/EguwZTwXEHzIhDBEVeLwJ7CTEETtSHB8S5aQPUCB8DfxU5AJlbIPwM1qMC/rZ1AJpNCwKvki7+ikug/
lpc_rms=-40.16
sample=SoloCello_sustain_PP_G3.opus
</region>

<region>
end=291804
hivel=127
key=G2
loop_end=270137
loop_mode=loop_continuous
loop_start=72951
loop_xfade=52076
lovel=0
lpc=PV/TQvEkcsNBoSBDtnYTwkCOgELFjZPCyHrXQRI1gsEDhQdBbCYxwJy/hkGNvq7AYpW4wQVPAUI4vLTAWEaCwWz8lcD3SJtBmSRgQC5hlsFBFfdAA2FJPNGDY8BAam1A
lpc_rms=-35.29
sample=SoloCello_sustain_PP_G2.opus
</region>

<region>
end=291642
hivel=127
key=G#4
loop_end=269987
loop_mode=loop_continuous
loop_start=72910
loop_xfade=52047
lovel=0
lpc=yvjDQXH9fMLXL4xCAbdewo1RMUISXRTCSzHsQYgrgsECbLtAvknhv5ls376/Xc8/ICQOwCyEdUCt97jALtxSQDjnW8Aj2TFBbLZIwQrgM0HuLlHBjWE+QfSxD8HUfH1A
lpc_rms=-44.14
sample=SoloCello_sustain_PP_G#4.opus
</region>

<region>
end=296684
hivel=127
key=G#3
loop_end=274655
loop_mode=loop_continuous
loop_start=74171
loop_xfade=52947
lovel=0
lpc=YqkiQmBWwcL3vJ1CAAwPwtCZ7kFpCb7BfPgEQa3EB8Hs72JBY1FkwRv3jEHfDFPB3z8AwTjXsEFs7DbBFODpvxv7FD/Tpau9I9GVQIfghMBzhJRAiN5+wKL5DsAcYylA
lpc_rms=-39.17
sample=SoloCello_sustain_PP_G#3.opus
</region>

<region>
end=300597
hivel=127
key=G#2
loop_end=278278
loop_mode=loop_continuous
loop_start=75149
loop_xfade=53646
lovel=0
lpc=ktb4QvNJl8MyhFFDRjz+wTO7UEIGKo7C9761QWiuhMHmvkdB4vESwGfAe0GzJ/TAHLkYwrrOYUKP9a+/P+sDwt2R1L8pNgpBf95nQUr8b8H8mQhBCcK/wBSbEEDg6w6+
lpc_rms=-33.32
sample=SoloCello_sustain_PP_G#2.opus
</region>

<region>
end=299460
hivel=127
key=F5
loop_end=277225
loop_mode=loop_continuous
loop_start=74865
loop_xfade=53442
lovel=0
lpc=Ais/QfY0t8EGN5hBzwBCwS3lHkEF87jAS02OQC0Kt8A2k8hANZDTwJeo4ECP4cXAKcChQE2Wtj6voHjAHE5fQEKrUcAlpolAIc9JwK9AU0Cum1rAL4C7QLMS+MAtLpJA
lpc_rms=-45.38
sample=SoloCello_sustain_PP_F5.opus
</region>

<region>
end=288310
hivel=127
key=F4
loop_end=266903
loop_mode=loop_continuous
loop_start=72077
loop_xfade=51453
lovel=0
lpc=A/SZQq3JSMNYVVFD01gIwwqL0kIkK6zCPyAnQmD1gcFWrIdBVtamwedC0EGaY63BbtcKwcrTAELr3rzB+jK4QASWmMCTtkpB57yRwBoBlcCCxEBAXkQuwPsVEkBBzlE/
lpc_rms=-28.48
sample=SoloCello_sustain_PP_F4.opus
</region>

<region>
end=291904
hivel=127
key=F3
loop_end=270230
loop_mode=loop_continuous
loop_start=72976
loop_xfade=52094
lovel=0
lpc=NoFpQqvYC8OXtuFCRLlBwmxVLUIVpRbCI5M/QdRRCMHST6RBgfHTwb+LzUGhXiHBxcKFwXoh9EFwlY7B36N8vmiHakBEsZi+RUHWQA/iPcGlQ9E/5rTHQMzRv8AyQkJA
lpc_rms=-34.07
sample=SoloCello_sustain_PP_F3.opus
</region>

<region>
end=293501
hivel=127
key=F2
loop_end=271708
loop_mode=loop_continuous
loop_start=73375
loop_xfade=52379
lovel=0
lpc=m5WpQudENsNQJ9NCpdyywUmUWUKLojHCFhXIwJCZkEDT+xxBoA9swba6n0GDfC/AAW6SwW7lhkHUlXJAcdE5wZXhUL+yDXFAZswqQawTdsEsWshAlZkdP62j58DBm6xA
lpc_rms=-37.52
sample=SoloCello_sustain_PP_F2.opus
</region>

<region>
end=298630
hivel=127
key=F#5
loop_end=276457
loop_mode=loop_continuous
loop_start=74657
loop_xfade=53295
lovel=0
lpc=tqQIQXJFisHwL4RBkopGwQCbO0EaRhzBDcjmQFixsMDy94VAZNnSvxvM6z9u903AaIRQQLLWh7+QOZq/dh+WQBpL6cBSoQ5BsYcUwQQREEFtTsbA+MhCQN3Ac79rSl8/
lpc_rms=-47.72
sample=SoloCello_sustain_PP_F#5.opus
</region>

<region>
end=297312
hivel=127
key=F#4
loop_end=275237
loop_mode=loop_continuous
loop_start=74328
loop_xfade=53059
lovel=0
lpc=Qk2FQSGcI8Lk8yhCyxDzwVwozUFB/LnBB/NqQSk87sABuI9AwbwkwJo+oUAjALTAT6Cvv9t76ECHRJ7AKku6P7qGJsA+ADxA8IkuvtI61L/faAdA06LqvyWBtD3Ua0k/
lpc_rms=-40.30
sample=SoloCello_sustain_PP_F#4.opus
</region>

<region>
end=302151
hivel=127
key=F#3
loop_end=279716
loop_mode=loop_continuous
loop_start=75537
loop_xfade=53923
lovel=0
lpc=yIkgQusoxcJGSKdCi8AUwkuv8kFBscvBQNiYQEPqI785ZclA6OvXwBYb7EDkUpq/12Y5wYnpnEFT1DvB5w7xv4g0kEBnWgHAhfWKQIlpu8AoNJJANz2bwE4b7T5DrwFA
lpc_rms=-38.90
sample=SoloCello_sustain_PP_F#3.opus
</region>

<region>
end=296652
hivel=127
key=F#2
loop_end=274626
loop_mode=loop_continuous
loop_start=74163
loop_xfade=52941
lovel=0
lpc=GNSJQrwaGsP1kMhCpGHTwSp8NkIoFDLCyKdVQYEYdMFk/l1BN64qwZi2sUEY01PBPSpCwUpXsEE9yI/AwhPzwM6grMBPryVBUR3GQMY8UcE7IJdA+KikwNcjn0Ax1j2+
lpc_rms=-38.99
sample=SoloCello_sustain_PP_F#2.opus
</region>

<region>
end=297743
hivel=127
key=E5
loop_end=275636
loop_mode=loop_continuous
loop_start=74435
loop_xfade=53136
lovel=0
lpc=Sry4QZ2JUcL2C1pCGuQowl1jC0IO+tDB4YeoQWYZj8Gw+SBB5Nc1wI5Icb975CRAoUOLwDvV/UDny5fA48gxP5jTWMAbtRpB8yBZwRR1lEG6m5DBK5hrQQJWJ8G0WotA
lpc_rms=-43.49
sample=SoloCello_sustain_PP_E5.opus
</region>

<region>
end=297296
hivel=127
key=E4
loop_end=275222
loop_mode=loop_continuous
loop_start=74324
loop_xfade=53056
lovel=0
lpc=dxveQcGYksKRaJpCqaxSwtmWI0IH8u3BnlYOQQceR0DnyZW/TnIRwM5C3UB9FsLARh6iwBwbLEFqF7DAUR4NvGPRMz/soSHALJGzQBagU8BWfhO/d84UQEJ367/saa8+
lpc_rms=-38.45
sample=SoloCello_sustain_PP_E4.opus
</region>

<region>
end=293128
hivel=127
key=E3
loop_end=271363
loop_mode=loop_continuous
loop_start=73282
loop_xfade=52312
lovel=0
lpc=r413QhJQG8PXxAVDmAVqwsyHPkKbeEfC2Ye6QfYl8sDly45BAqLYwYS2xUGJU93ABbOdwX+/5kF8mYvBawezQLeCl7+TUZi/gHz2QJrrJsHoQ1ZAL2q+v0Z6aEBw77S/
lpc_rms=-35.91
sample=SoloCello_sustain_PP_E3.opus
</region>

<region>
end=302158
hivel=127
key=E2
loop_end=279723
loop_mode=loop_continuous
loop_start=75539
loop_xfade=53924
lovel=0
lpc=tp3XQucDZMOYjARDd9D6wZNzfUKDqTLCYd+uwHaU48C3fSVBij3dwCOYqEH4Jve/Kf3XwQaltEHwvAJBe/mRwZbUmMBfGN5AjHueQe5Yq8Hosr9AxDioPHEhJsGdLxBB
lpc_rms=-36.71
sample=SoloCello_sustain_PP_E2.opus
</region>

<region>
end=297784
hivel=127
key=D5
loop_end=275673
loop_mode=loop_continuous
loop_start=74446
loop_xfade=53143
lovel=0
lpc=l2CCQXH6+8G9b/RBFFjUwQsNsUFupGTB+7UyQfTWJMFffbxAzACIwFjXsUByrU3AMJFhP5tVSj+s1RvAkg9lQB9eZ8B6kZtAfbmlwNsS00CFP/jALYPoQNJEicBQRQZA
lpc_rms=-45.79
sample=SoloCello_sustain_PP_D5.opus
</region>

<region>
end=311500
hivel=127
key=D4
loop_end=288371
loop_mode=loop_continuous
loop_start=77875
loop_xfade=55591
lovel=0
lpc=pC6bQUq0OsLOxTBC/0rdwcKxzkGlTb7B3vNJQZTK2MCgf8lAjUCWwDWMbT9wMiFAkJbiwAmGJEEa5e/A5pHZP8LWXj7mBbU/S1SEvmqO7b+XBoo/mZkxP+IAjL+5SU8/
lpc_rms=-38.45
sample=SoloCello_sustain_PP_D4.opus
</region>

<region>
end=300646
hivel=127
key=D3
loop_end=278323
loop_mode=loop_continuous
loop_start=75161
loop_xfade=53654
lovel=0
lpc=bDFHQjkx/sK0IdtCkyUowj11AUKUWwvCceB+Qaj+WsGJFo1BbGVRwSn7UUHw687AJgJ4wds1y0HN6QDBHiGywEznyL+D8cxA90MHQH5U58DDPrpAio7zwGG2zECr57u/
lpc_rms=-39.86
sample=SoloCello_sustain_PP_D3.opus
</region>

<region>
end=307733
hivel=127
key=D2
loop_end=284884
loop_mode=loop_continuous
loop_start=76933
loop_xfade=54919
lovel=0
lpc=b9AqQiZwtMJoQVhCAelmwQ5+7UE9uuLB+4ffQHJ2/sAZczlBMJsHwa+XDUGhx2zAz2TcwEVVHUHldy+/nAE8wGPsicC/SsxAUKu+P04rZcBFwl0+04B4vxvoj73jX48/
lpc_rms=-43.85
sample=SoloCello_sustain_PP_D2.opus
</region>

<region>
end=293571
hivel=127
key=D#5
loop_end=271773
loop_mode=loop_continuous
loop_start=73392
loop_xfade=52392
lovel=0
lpc=GP5PQXKw6sFowu9BNhe6wVPsnEE0VHbBKMk7QXX4LcFnRjBBr8UEwQIvAEHw6QbBrsafQFe7NsDgdkxAIR0IwEO8wjwtfpdAwFgFwVoPHEHZhg/B258dQb/ML8FXJ7xA
lpc_rms=-49.97
sample=SoloCello_sustain_PP_D#5.opus
</region>

<region>
end=297689
hivel=127
key=D#4
loop_end=275586
loop_mode=loop_continuous
loop_start=74422
loop_xfade=53127
lovel=0
lpc=pRAPQpUXrsLyjaJCT6xSwtSaOUJeTBbCHnmuQTySe8HUPG9Bc5tUwWiPTUFwvvrAfE7HwJCVg0ES0lzBdoDKQP4Pc8CB6ZU+4EKcQFsooL75YPc+8ZiHwO3Txb6jkvI/
lpc_rms=-36.46
sample=SoloCello_sustain_PP_D#4.opus
</region>

<region>
end=296610
hivel=127
key=D#3
loop_end=274587
loop_mode=loop_continuous
loop_start=74152
loop_xfade=52934
lovel=0
lpc=bQJUQoFq+cJ4gbxCPlsPwsP/HEKwUgTCKJwzQSaJfcHve6hBXMW6waOttEEAaM2/L62twZXm30HJ5WXBt7FdwKsAhUBO4xtAF42sQCfQJsFrlb0/fUD0v1FN4UCx2UXA
lpc_rms=-37.79
sample=SoloCello_sustain_PP_D#3.opus
</region>

<region>
end=300248
hivel=127
key=D#2
loop_end=277955
loop_mode=loop_continuous
loop_start=75062
loop_xfade=53583
lovel=0
lpc=/5ViQsvC+8IHvqlCRt7vwfqkKULoXhfCeI9bQZQ4LcHG2dxAEzmZwLkaMUGItN+/+RpuwTDtkEFzW4jAye+pwMZIPsCz5a9AzUHnQPOECcFuY3TAfNyzQINubsCNPzlA
lpc_rms=-40.72
sample=SoloCello_sustain_PP_D#2.opus
</region>

<region>
end=303164
hivel=127
key=C5
loop_end=280654
loop_mode=loop_continuous
loop_start=75791
loop_xfade=54103
lovel=0
lpc=eLW9Qb3/YMLa+FVCVEnywdq2kUF0VW7BPnYwQbiDy8BNpidANbzyP25gJT8JCP3AHr2zQOPsN0DrttLAsHCLQHQziMBtqBRB71oaweuLwUA63yvATGPvPxlaJ8AqV+8/
lpc_rms=-46.30
sample=SoloCello_sustain_PP_C5.opus
</region>

<region>
end=299797
hivel=127
key=C4
loop_end=277537
loop_mode=loop_continuous
loop_start=74949
loop_xfade=53503
lovel=0
lpc=d5iIQVFJLcIXRDJC2gP6wRR630GYd7vBMUEvQY50FsDmMo8+xsumvykcQUCWf7G/Ctl1wOsiAUFAYcvAmIbBP3q1a7+rKR1AKOmQv/aZaL/V4vo/7IKkv/A4ST5WJ0c+
lpc_rms=-44.04
sample=SoloCello_sustain_PP_C4.opus
</region>

<region>
end=308887
hivel=127
key=C3
loop_end=285952
loop_mode=loop_continuous
loop_start=77221
loop_xfade=55125
lovel=0
lpc=MgcFQm0bocLbxYRCpjfxwcDM60EWt9vBnXFWQTtmHsESL+pAcoQ6wKgKnUAC4ITAMibCwOmlS0FDzJzAHlAcv2+pusB+Ib9A7cA/QJ9IgMDWUGA/1MJNwNStjEBqPeC/
lpc_rms=-43.65
sample=SoloCello_sustain_PP_C3.opus
</region>

<region>
end=307035
hivel=127
key=C2
loop_end=284238
loop_mode=loop_continuous
loop_start=76758
loop_xfade=54795
lovel=0
lpc=GhOQQnvEK8ORIvdCp5Htwd1fF0LuiTfCRYZeQbbP3sBmJc1AlfeAwMJGaEE1DQnBgZA1wYNVo0Gwn97AzBDqwJVMxL/hHxJBG2qDQKxKJ8HlkUNACKNQwNRvaj9SjA1A
lpc_rms=-39.45
sample=SoloCello_sustain_PP_C2.opus
</region>

<region>
end=298563
hivel=127
key=C#5
loop_end=276395
loop_mode=loop_continuous
loop_start=74640
loop_xfade=53283
lovel=0
lpc=LNePQSabFMKWlBJCP/vxwXC+zEFtuJHBI1hBQUffG8Hz2iFBfWgbwf2cEUEXYhPB1DmrQFjO1r4n0lO/aib1PzlQGMA18atAm7UDwZDm70CUsVjAaNNhv4WMIkB0MDW+
lpc_rms=-46.10
sample=SoloCello_sustain_PP_C#5.opus
</region>

<region>
end=294473
hivel=127
key=C#4
loop_end=272608
loop_mode=loop_continuous
loop_start=73618
loop_xfade=52552
lovel=0
lpc=UzONQXHSLMJZiytCuVH0wSES20HJq7PBP48zQd7zncCpwVxAyycuv5shlj+x+8a+LyLswFDnK0ExQuDAx69SQFEtPcCnnEZA8dKSvzhhlz2hH4Q9pVCjv9S0HEDvspS/
lpc_rms=-41.24
sample=SoloCello_sustain_PP_C#4.opus
</region>

<region>
end=296858
hivel=127
key=C#3
loop_end=274816
loop_mode=loop_continuous
loop_start=74214
loop_xfade=52978
lovel=0
lpc=LXsWQhtWq8LmzG9CceKOwc84vkESbLrBTa3zQPmHMcGZmWRBrJQWwY4dFUGmjDPAl3oWwbonEUE28zQ+S40swN3oh7+QhQBAg/d9QB2c7MC0JbNA8LTdwO6KDUFDeofA
lpc_rms=-41.98
sample=SoloCello_sustain_PP_C#3.opus
</region>

<region>
end=303645
hivel=127
key=C#2
loop_end=281099
loop_mode=loop_continuous
loop_start=75911
loop_xfade=54189
lovel=0
lpc=Sx2NQgGlGcMdR8VCN+zvwQjSLELdLxbCVyRbQdBscsE9xyRBQVMEwbYUlkFHTtHA9eGLwSsep0HaX1++X3oYwaFEjsAFDgBBZ9v5QG0cIMFNcMW+jbdHQMYBqMCdPXRA
lpc_rms=-39.52
sample=SoloCello_sustain_PP_C#2.opus
</region>

<region>
end=313360
hivel=127
key=B4
loop_end=290093
loop_mode=loop_continuous
loop_start=78340
loop_xfade=55923
lovel=0
lpc=iVF/QR2mEMKdxg5CI67Cwc3il0E+AIDB/qtYQfr3NMHpmQFBjYnKwPT680BMa7PAwaETwL+z4UA1TNjACp2iQMcsM8AZIbU/erUQv7pMDz5k/po/Cu7Zvp1eFMB2PyxA
lpc_rms=-46.86
sample=SoloCello_sustain_PP_B4.opus
</region>

<region>
end=291680
hivel=127
key=B3
loop_end=270023
loop_mode=loop_continuous
loop_start=72920
loop_xfade=52054
lovel=0
lpc=YsmdQYQNRcIWjkZCQREEwl8500FoA6rBlUUSQWgjNr/I/Jq+IxYIwJ65d0C9i8m/iY0wwDWfqkA1LIjAg0FBPu1BNT+OHBtAvYbXvxfgnb5Rss4/ARo5wMKfG0D2XXq/
lpc_rms=-41.90
sample=SoloCello_sustain_PP_B3.opus
</region>

<region>
end=298250
hivel=127
key=B2
loop_end=276105
loop_mode=loop_continuous
loop_start=74562
loop_xfade=53227
lovel=0
lpc=TB1EQtD658JptbNCAkMJwrMpDULhtAzCwFR6QYvifsHWcZdBi8RewZjdhEEZHljBx0SbwCAQiUF/ffvAjBzaP0WHI8Go8BRBA15KQMLGjcCj9oo/upCjwLiV9j+/0Ow/
lpc_rms=-39.69
sample=SoloCello_sustain_PP_B2.opus
</region>

<region>
end=294654
hivel=127
key=A4
loop_end=272776
loop_mode=loop_continuous
loop_start=73663
loop_xfade=52585
lovel=0
lpc=nLOGQRfEKcKw9SxCWLruwaQ9y0FKkLLBGWZiQcSF6cAjc89AVkbxwAx7BUF+/N3AwVnLP5ccDkCSKJy/9d0GQMJduMBhjXxAcxThP8Hga8CPbyhAdtqZv/gUcT6H8q89
lpc_rms=-47.65
sample=SoloCello_sustain_PP_A4.opus
</region>

<region>
end=303350
hivel=127
key=A3
loop_end=280826
loop_mode=loop_continuous
loop_start=75837
loop_xfade=54137
lovel=0
lpc=yC3kQblnj8KtOnZCSzPHwVlznUGJFJvBSpLaQLaPecB7wvpA4In0wN1g5UAv/mXAgPvewNNkTEHV6MzADKBdv+YPKj4WJGBAfkU+wOETgD4ArP8/BpM6wJreoT/zUxW9
lpc_rms=-42.26
sample=SoloCello_sustain_PP_A3.opus
</region>

<region>
end=306593
hivel=127
key=A2
loop_end=283828
loop_mode=loop_continuous
loop_start=76648
loop_xfade=54715
lovel=0
lpc=CRiDQt+1GcMxpuBCEH0Iwr/tE0JSYRHCfHstQVdxTMFSeEpBOwqHwEItQEHfYe7AE7qCwQnjvkFaQZjAgsSfwCTdC8DIYBRA5M3BQDKdCcHuJz1AYR9IwBOXzkAFwlDA
lpc_rms=-37.01
sample=SoloCello_sustain_PP_A2.opus
</region>

<region>
end=305277
hivel=127
key=A#4
loop_end=282610
loop_mode=loop_continuous
loop_start=76319
loop_xfade=54481
lovel=0
lpc=vYMSQYlqncE+j45BQcMzwSn7KEGFLDTBf+YZQVd73cD8WohADOBtwLyNVkCyyey/MqgmPzah8D7SOQnApV8zQDcVYMDE4pNAaldiwDb16j+4bk6/W4qsP58Q0r8RWYQ/
lpc_rms=-53.31
sample=SoloCello_sustain_PP_A#4.opus
</region>

<region>
end=297294
hivel=127
key=A#3
loop_end=275220
loop_mode=loop_continuous
loop_start=74323
loop_xfade=53056
lovel=0
lpc=F/gjQhFjxcLz6qZCFuIkwsyiCEIANs/BRw4TQeE5IcEB7odBoQ+QwddllEGJmRPBQ6UYwY14lkHBkTfBSqTcP4Xbz78pV6VAjk2SwO+zjb8XfOJAy2dwwP6dZsCGaD1A
lpc_rms=-40.68
sample=SoloCello_sustain_PP_A#3.opus
</region>

<region>
end=295205
hivel=127
key=A#2
loop_end=273286
loop_mode=loop_continuous
loop_start=73801
loop_xfade=52683
lovel=0
lpc=F5PQQthNgsOvYlRDKFShwguQnEIWNqTCJlUoQvJvMMIxiFNCuLYQwvfL7kHr35HB6UOEwe+eBUJRNA/BuBIqwX72qL/TsBtBd6xyQNi/OcEtZmNBk87EwR/NrUGuWdfA
lpc_rms=-31.92
sample=SoloCello_sustain_PP_A#2.opus
</region>
</group>

<group>
group_label=MF
lpc_hicc1=84
lpc_locc1=43

<region>
end=299458
hikey=B6
hivel=127
lokey=G5
loop_end=277223
loop_mode=loop_continuous
loop_start=74864
loop_xfade=53442
lovel=0
lpc=VBCkQBQWDcHtpOVApPeSwJ4VnUBBAHTA5Mx4P0S8sz9jio6/AEd2Pgd2MT8MkI0+srP/vp6tOz6ew8u+tcUIQBq5K8D8rs8/V5s7vu5ILz93d+c+7Bjrv7WmzD+/IDc9
lpc_rms=-46.05
pitch_keycenter=G5
sample=SoloCello_sustain_MF_G5.opus
</region>

<region>
end=303793
hivel=127
key=G4
loop_end=281236
loop_mode=loop_continuous
loop_start=75948
loop_xfade=54216
lovel=0
lpc=Zc8aQQFVrsHDP6pB+VB4wUglWkEJWkfBeqYjQZJg/MD+OK1A0184wBk6+z/eZVbAt/8FQLzpmD6OIzI/eRAYwBY5DUDpdLG/JDMyPzrRHb/Fxqo/Lq8vv4Tbe76SBuY+
lpc_rms=-42.24
sample=SoloCello_sustain_MF_G4.opus
</region>

<region>
end=311897
hivel=127
key=G3
loop_end=288739
loop_mode=loop_continuous
loop_start=77974
loop_xfade=55662
lovel=0
lpc=IWUcQTMtucGbhLNBj5JjwSwyK0G2wBfBRF/pQNaJpMDQZ5BA4dGDwJMtTkDDexTAicNOv8miZEBBCz7Ajz5zP1qKLD+D2Qa/EnEvP4EOHMB2GQ5ABb4QPyeDBsDbE5Q/
lpc_rms=-45.60
sample=SoloCello_sustain_MF_G3.opus
</region>

<region>
end=305051
hivel=127
key=G2
loop_end=282401
loop_mode=loop_continuous
loop_start=76262
loop_xfade=54440
lovel=0
lpc=QZVmQifJEsMfVPhCws4awtlqz0GHvSPCgb+jQUk9zsDs4SxB+WRUwWqCLUFxFum/48ESwdUKekEdigvBLCbuP+iuWcApYMpAI/QmwYzwBkHYeF7ABaUsQW8bj8GnGwZB
lpc_rms=-34.76
sample=SoloCello_sustain_MF_G2.opus
</region>

<region>
end=296304
hivel=127
key=G#4
loop_end=274303
loop_mode=loop_continuous
loop_start=74076
loop_xfade=52879
lovel=0
lpc=H2s0QVfFzcFCwMdBhmGPwU9ig0HO0WrBtnwdQYzN1sDs9ZhA008ewJs5hz9X/+6/vrjyP8yviT4s/pC/lut5Pn+ki79GDlBAmCdOwD58aEDBSYLAgbcyQJg7t7/BPDY/
lpc_rms=-37.55
sample=SoloCello_sustain_MF_G#4.opus
</region>

<region>
end=300500
hivel=127
key=G#3
loop_end=278188
loop_mode=loop_continuous
loop_start=75125
loop_xfade=53628
lovel=0
lpc=8HjRQS2FfMJbfG1C23UWwqAW5EGYY7/Bm1KTQayvTcErMjxBb0gnwYgmWUCe+VVA/YwawXMUTkH1Zg7BPaKJQOPtNsAT+BZAu+gtP10UjMD7dZxAHuMBwMnuS79Q004/
lpc_rms=-35.25
sample=SoloCello_sustain_MF_G#3.opus
</region>

<region>
end=294891
hivel=127
key=G#2
loop_end=272995
loop_mode=loop_continuous
loop_start=73722
loop_xfade=52627
lovel=0
lpc=ueynQq/3W8P1LkNDK/OdwluhgkLRnZ7Ci18lQhLmmcFbIPpBAiMtwlQ+GUKDVi/BASKewW/7BUJN2ZPBBSpsQIU9WsE/58JBeUbDwQ9NVEHaMPC/FXoeQWN2m8F8nBZB
lpc_rms=-30.75
sample=SoloCello_sustain_MF_G#2.opus
</region>

<region>
end=293191
hivel=127
key=F5
loop_end=271421
loop_mode=loop_continuous
loop_start=73297
loop_xfade=52324
lovel=0
lpc=VKYMQbQIhcG0pVtBvZbrwBpMu0DcF6fAfJyCQHprDMA4Gsw/DZjHvxfNlT8kIIy9qb2Pv/4VAEB4ZR+/PkcEvnkqHr3gMOQ/w0jwv6AJvD+k0cg8HM/ZvfvFpb+2qtE/
lpc_rms=-40.26
sample=SoloCello_sustain_MF_F5.opus
</region>

<region>
end=292026
hivel=127
key=F4
loop_end=270343
loop_mode=loop_continuous
loop_start=73006
loop_xfade=52116
lovel=0
lpc=g+sJQnUXncLwMZtCkbZqwo22RkLyHRjC4yLUQdbtq8G4Iz9B2kNZwCs/yb9kg/hACsZKwQxkaUFaaFjBNC3/QAqCmcBY2LRAmWxgvwETJcD79pu/HbaGQGi2ksBr5ltA
lpc_rms=-29.66
sample=SoloCello_sustain_MF_F4.opus
</region>

<region>
end=288179
hivel=127
key=F3
loop_end=266782
loop_mode=loop_continuous
loop_start=72044
loop_xfade=51429
lovel=0
lpc=mrx9QlA4IsO5zCFDyBHBwsXJgEKFnmvC1HIxQjsa9cEGC9VBDrfLwU5AyEEYRZPBmjRiwHWXp0FBfP3AsAYmwUKjckEQxyjBYAcCQTe0/MBNNKc/2wDVQNC7HMFFSZVA
lpc_rms=-29.32
sample=SoloCello_sustain_MF_F3.opus
</region>

<region>
end=288252
hivel=127
key=F2
loop_end=266849
loop_mode=loop_continuous
loop_start=72063
loop_xfade=51442
lovel=0
lpc=e1D1QhaZo8PMy5ZDytzxwvSqkkIx2rTCngJUQhOokMGACBtB3IS2wTot4UG88XxAEIoRwtOPQkLVKQrCz/9qQacfYcERpNxB5530wdqe8kAiiQBB0W83QVyj+cEvqYFB
lpc_rms=-26.68
sample=SoloCello_sustain_MF_F2.opus
</region>

<region>
end=287163
hivel=127
key=F#5
loop_end=265841
loop_mode=loop_continuous
loop_start=71790
loop_xfade=51248
lovel=0
lpc=DBMKQb8zc8EJh0hBITEAwTgzyEBPxmDAV9oWQK0roL+3CZY/ZCqzv/7QEUAXObK/5iJQvvqXLEDlwxTA6DPQPyDW7r+1MitAgcTAv1LAHUCgBmrAW9dpQJO8FsA+7e4/
lpc_rms=-39.59
sample=SoloCello_sustain_MF_F#5.opus
</region>

<region>
end=292300
hivel=127
key=F#4
loop_end=270597
loop_mode=loop_continuous
loop_start=73075
loop_xfade=52165
lovel=0
lpc=EMs3QcI+2cEpCtZBZ0mSwfppbEGw6kfBxX78QCQmiMDs2VxAAdE1wDaOpz4DqLY/WcklwIR2oUDrWJ/AACc1QJylXcCFQ5hAGv5ewImguT8SGqa/FotvQK8di8BnX+k/
lpc_rms=-38.97
sample=SoloCello_sustain_MF_F#4.opus
</region>

<region>
end=299046
hivel=127
key=F#3
loop_end=276842
loop_mode=loop_continuous
loop_start=74761
loop_xfade=53369
lovel=0
lpc=Pm2qQffcU8J9lExCHQP3wbiIs0FUco3BwqkmQRCy4cAvYvNA44TswHfja0Cn4Nw/U98awdcNaEEo+h7B+JqLQPLZir8LOwc/1rtmv9EDtL/Ls+E/28jYvukusz5zVD2+
lpc_rms=-37.82
sample=SoloCello_sustain_MF_F#3.opus
</region>

<region>
end=299797
hivel=127
key=F#2
loop_end=277537
loop_mode=loop_continuous
loop_start=74949
loop_xfade=53503
lovel=0
lpc=z6ONQhTvRMPeVUVDXFGuwn9jGUJ3J0LCuxMoQm+rycHSfYBBxOi+wR32AEI1+ojB5qqiwImFekHRvBbBo5wjwDI4CkEiwLrAZ/ztPuvd0L8Tdf0/dsJ1QKOk58Br51dA
lpc_rms=-32.44
sample=SoloCello_sustain_MF_F#2.opus
</region>

<region>
end=277616
hivel=127
key=E5
loop_end=257003
loop_mode=loop_continuous
loop_start=69404
loop_xfade=49544
lovel=0
lpc=fhoZQfW/qsH+m69BY+17wSSVMEFnGurAhH7HQJaczsCMqMZAyyalwNZKhUBE2FzAGSMIQF5ouj7W1Ti/lrpXP3FyGMAcrm1AOH8rwPdbK0D6XnnAGzesQI31k8DMQQdA
lpc_rms=-36.57
sample=SoloCello_sustain_MF_E5.opus
</region>

<region>
end=291574
hivel=127
key=E4
loop_end=269925
loop_mode=loop_continuous
loop_start=72893
loop_xfade=52035
lovel=0
lpc=YNgfQX0js8EEa5xBu0IwwdJNC0Fml9XATXcVQC+/O7+Mod8+6kmWP5WbVb9IFr+/CLewP7tb8D5Bv6e+6DEXvQxm375VMcY+XwwNP5KQuL4X61O/Zq1wP3i/wL72oy8+
lpc_rms=-40.04
sample=SoloCello_sustain_MF_E4.opus
</region>

<region>
end=299312
hivel=127
key=E3
loop_end=277088
loop_mode=loop_continuous
loop_start=74828
loop_xfade=53416
lovel=0
lpc=MHsKQhp9rML686VCSM5Lwr2kGkKPPgTC1hG0QZDZYsEd9BdBaVASwatjKkFL54jAt6EOwei7hkEND2HBaobqQGbsG8C3CylAtEZLwL74gT3vfKg/zYD4vv5Xv7/CKcA/
lpc_rms=-32.69
sample=SoloCello_sustain_MF_E3.opus
</region>

<region>
end=289480
hivel=127
key=E2
loop_end=267986
loop_mode=loop_continuous
loop_start=72370
loop_xfade=51661
lovel=0
lpc=OwmcQrz9R8Mj8yBD3VMOwvREuUFt8T3C+xO6QYvKmsBEajhAye4cwZF+mUGGpunApUM1wUHLi0G7DtjA9MxrwG0Opz96c8tAACokwYDLCD+V9hFBb/sFQJd0h8E5LB5B
lpc_rms=-32.63
sample=SoloCello_sustain_MF_E2.opus
</region>

<region>
end=286458
hivel=127
key=D5
loop_end=265188
loop_mode=loop_continuous
loop_start=71614
loop_xfade=51122
lovel=0
lpc=Ino5QTvxp8EZZYxBShQxwXhKFUFg1wDBMAP1QPFotsBty35AlzulwP/8tEBexXPA9jaovoi0gUBCwljAyySxP7IApL++qeY/a9Mpvkk5jLwE1B8/WsJdPwDpqr+bIKE/
lpc_rms=-37.63
sample=SoloCello_sustain_MF_D5.opus
</region>

<region>
end=294333
hivel=127
key=D4
loop_end=272479
loop_mode=loop_continuous
loop_start=73583
loop_xfade=52528
lovel=0
lpc=7WZiQfiuB8IiDAVCuIi5wVKnnUFzg4fBxjlMQZF8FME2N5hAsU6Bv+7GjD72vQG/NrPMv3txPEDt08C+dhIGwCrXxj/2eIS+ouurP7qUO8DEI01A/aQZwCSv1T6oFQc/
lpc_rms=-37.26
sample=SoloCello_sustain_MF_D4.opus
</region>

<region>
end=302770
hivel=127
key=D3
loop_end=280289
loop_mode=loop_continuous
loop_start=75692
loop_xfade=54033
lovel=0
lpc=QXy0QfVvYcLGC1RCt4jTwe6DYkEa7UDBp1AKQUf7o8AUtMQ/UB4GvZeRlb8JSpFAq8oUwcnJaEF4xEjBf5T4P//YpUBe68K/H/W2v6GMdb8lRWhAgWihwBdQOECNROW+
lpc_rms=-37.95
sample=SoloCello_sustain_MF_D3.opus
</region>

<region>
end=304158
hivel=127
key=D2
loop_end=281574
loop_mode=loop_continuous
loop_start=76039
loop_xfade=54281
lovel=0
lpc=/hcYQgrbvsLRoqJCTZUPwiV3CUKmof3BCb0QQQGgCsBYQahAMU7lwPEwmkBWBMVAUK9gwXo+N0FdJCXAp2ODv6Uof7/nqH5AlIfOwKEwM0DDWtG+/bPeQKrmJ8Hu7I9A
lpc_rms=-38.06
sample=SoloCello_sustain_MF_D2.opus
</region>

<region>
end=292557
hivel=127
key=D#5
loop_end=270835
loop_mode=loop_continuous
loop_start=73139
loop_xfade=52211
lovel=0
lpc=vKE4QS4oucG6gKxBYrdpwRgZEUECFJrAMESIQPSKmsAgOnxAAONwwJzas0AIz27AldVUPu66Mz+8pV+8xCbsPt6+qr9DByRAMCwrwCuSe0A1NY7AEryKQIgGdcBCkRlA
lpc_rms=-35.61
sample=SoloCello_sustain_MF_D#5.opus
</region>

<region>
end=291784
hivel=127
key=D#4
loop_end=270119
loop_mode=loop_continuous
loop_start=72946
loop_xfade=52073
lovel=0
lpc=M3+hQXkZP8K/WjJC5T3fwYAGtUEhC53Bc8IyQWFZhcBwFWI/9iyBP/xIpz+BEWrAcmrdvw7n2EAIMcHA+N2MQMBvF8BsEoc/qWf1vZ2I5b9pFZZAMVB+wBO8o77gvaE/
lpc_rms=-33.99
sample=SoloCello_sustain_MF_D#4.opus
</region>

<region>
end=295108
hivel=127
key=D#3
loop_end=273196
loop_mode=loop_continuous
loop_start=73777
loop_xfade=52666
lovel=0
lpc=IBkDQiurnMJL35FC/K8xwqsWCULXLeLBiwiOQUPWUsHotB5BjLDGwEJ8tUAdVZS/uS42wSR8iUGS8iXBAK+hQHMCB8DZUBFAu+w5vzcKcMA1wYhAuYJEwCYAeD5RgpA/
lpc_rms=-33.46
sample=SoloCello_sustain_MF_D#3.opus
</region>

<region>
end=307876
hivel=127
key=D#2
loop_end=285016
loop_mode=loop_continuous
loop_start=76969
loop_xfade=54944
lovel=0
lpc=M9AoQr/hzsK9EalCHlEGwmVvAkL2SvvB/GrXQIeqLcDxqWdBFgOOwbEsIEENPcw/Y5wJwURgMEH6/grB/x0KQa3kFMFF0hFBFD0ewXdpfECzTgFAuVcLQHz8+sBSsYxA
lpc_rms=-35.61
sample=SoloCello_sustain_MF_D#2.opus
</region>

<region>
end=296658
hivel=127
key=C5
loop_end=274631
loop_mode=loop_continuous
loop_start=74164
loop_xfade=52942
lovel=0
lpc=9QA6Qbh70cE3zMlB58OIwUE8akF4JU3B7lACQWiumcCuco5AuNalwN2oq0DhsDrAhDL4v76loEAIbZHAI/SNQJwdk8AfGWhAGNqzv3SStj54q1i/0IgBQPC1N8DkH/8/
lpc_rms=-36.12
sample=SoloCello_sustain_MF_C5.opus
</region>

<region>
end=305283
hivel=127
key=C4
loop_end=282616
loop_mode=loop_continuous
loop_start=76320
loop_xfade=54482
lovel=0
lpc=z61bQbReAsI8v/9BOIStwfb1kEERAHzBMGwvQYH48MBp/JJAUNhTwO2RgUAVREDANfV4vwVMLUBovdS/oR+DPqChgj5FGSa/ton/P/WfCMCGLj4/sAmAPz66qr/RuCg/
lpc_rms=-37.35
sample=SoloCello_sustain_MF_C4.opus
</region>

<region>
end=317318
hivel=127
key=C3
loop_end=293757
loop_mode=loop_continuous
loop_start=79329
loop_xfade=56630
lovel=0
lpc=TC6VQQKKMsJgqBtCtyKWwWxHX0Hk91TBWzn0QLRdfsDwE2dAOyeJwHzsWUAz03M/B43UwHNLF0GXHADB8TOEQJQbiD578EC/igvPvZBQOL/RmAY/B8mqvlbugj/oHkS/
lpc_rms=-41.06
offset=10482
sample=SoloCello_sustain_MF_C3.opus
</region>

<region>
end=294943
hivel=127
key=C2
loop_end=273043
loop_mode=loop_continuous
loop_start=73735
loop_xfade=52636
lovel=0
lpc=SxuVQqpnScNQ5EJDXjK/wqZ7gUKfS3jCoK7oQfgWtsBAoxNBcz2swZGVk0HnCNW+qvxowS48sUGFkTbB8+7Uv1NTEb/SSqFARXPOvzZ6/cAAO0dBTxuDwKbYwsAGo4lA
lpc_rms=-38.85
sample=SoloCello_sustain_MF_C2.opus
</region>

<region>
end=297606
hivel=127
key=C#5
loop_end=275509
loop_mode=loop_continuous
loop_start=74401
loop_xfade=53112
lovel=0
lpc=FjMCQZjpgcHdbWJB7R4Pwb1h60Ays9XAER+IQCFQ3b8nheI/of0pwKLBEEDjLWq/e66JvigbuT94o+e/dMKYP2tD7r52W8o/DUEywE6+IkAzFNy/N0IcQLwXLMDuksQ/
lpc_rms=-41.89
sample=SoloCello_sustain_MF_C#5.opus
</region>

<region>
end=301818
hivel=127
key=C#4
loop_end=279408
loop_mode=loop_continuous
loop_start=75454
loop_xfade=53863
lovel=0
lpc=Nc+4QTxVXsJa5llCNIsQwhXV6EGbhtnBJcSjQe5KPsEEGaxAaDBNwHEDckBlYoDArPM5vtMHtUDHlurAcDjUQGvAm8CVQINA5kcawKLsGkDFxq7Aw5jKQB+2ocBNNhhA
lpc_rms=-36.41
sample=SoloCello_sustain_MF_C#4.opus
</region>

<region>
end=295037
hivel=127
key=C#3
loop_end=273130
loop_mode=loop_continuous
loop_start=73759
loop_xfade=52653
lovel=0
lpc=fgYbQsQWycIRMspCKpt0wl3jKUIbcxXCz87bQQ7zb8FjTopAfv6EPjmJzb+13aJAmAZgwR1fnkFmDTfB6VNMQF4hbMApMg9BZxIJwQ9KUb4boJ1AcpsowHaRsL9kgNA/
lpc_rms=-35.85
sample=SoloCello_sustain_MF_C#3.opus
</region>

<region>
end=300253
hivel=127
key=C#2
loop_end=277959
loop_mode=loop_continuous
loop_start=75063
loop_xfade=53584
lovel=0
lpc=55OHQjy5LcPftBdDT0+BwpsVVkJOj07C21KMQRNK0MDgKoFBQumwwYZFK0GlPExB7+G5wX+UqkEUN0jBtsvkQOYQ38CFIzJB5aN+wch/rUB6o6ZAkOhJQPvBPcGFP75A
lpc_rms=-32.53
sample=SoloCello_sustain_MF_C#2.opus
</region>

<region>
end=295947
hivel=127
key=B4
loop_end=273973
loop_mode=loop_continuous
loop_start=73986
loop_xfade=52816
lovel=0
lpc=T7w9QWyUu8F92aVBVSNpwYy2QUHxRifBgKgRQcse9sCF4fRAvbvBwLPRUUCnUfq/bde+v3/rVUDda1DA5vaqQJvawcCEr75AMXC2wIexnEAvEUTAqesyQHNee8AsLj9A
lpc_rms=-39.19
sample=SoloCello_sustain_MF_B4.opus
</region>

<region>
end=300036
hivel=127
key=B3
loop_end=277758
loop_mode=loop_continuous
loop_start=75009
loop_xfade=53545
lovel=0
lpc=zC93QdzGFMJIRA9CrWm6wYgjk0FCwnzB3uxAQSsGFcE8OdpA+qV/wAj/FUDcy/W//z0PwLCt20D0A7DAIpIrQG6ugr/Ul0A/4aelv4VZ3j48Uw1AkuqIwB/SN0DFVQm/
lpc_rms=-39.87
sample=SoloCello_sustain_MF_B3.opus
</region>

<region>
end=297849
hivel=127
key=B2
loop_end=275734
loop_mode=loop_continuous
loop_start=74462
loop_xfade=53155
lovel=0
lpc=DjPlQX3gjcIUVXdCIyjHwba9XUHsKWvBNiLxQCdBH8B460RAKYlrwP+NFUDcMQ1AlJISwYXxdEE+V0HBzjmaPot50kBJO1vAeqMOPg8fBMCLZYlACZhvwE4v4j2KvZA/
lpc_rms=-34.97
sample=SoloCello_sustain_MF_B2.opus
</region>

<region>
end=306102
hivel=127
key=A4
loop_end=283374
loop_mode=loop_continuous
loop_start=76525
loop_xfade=54628
lovel=0
lpc=ZfDJQIh4X8GaHVhB+LYVwbo7BkGk5PzABbi1QKDMi8AxyldAzvWHv+6B+r61Y9o+P9o2v9cN/z+1z/y/O0ZjP9bnFb86/dM+1sBsPpF6ib7fi5q9EFI9P+gnnb8MNlM/
lpc_rms=-42.57
sample=SoloCello_sustain_MF_A4.opus
</region>

<region>
end=294634
hivel=127
key=A3
loop_end=272757
loop_mode=loop_continuous
loop_start=73658
loop_xfade=52581
lovel=0
lpc=lT+vQezNX8KCjGFC5pEOwlwozUFv1aPBJt9dQa2IKcFVdQtBOiKtwBjwnT/agiRAC2X6wCyLSkH4BCXBMGi0QEPIUMC53E8/TUKrPg0bQ7/AYWZAGWaKwJfpHT9YS1s/
lpc_rms=-35.90
sample=SoloCello_sustain_MF_A3.opus
</region>

<region>
end=304399
hivel=127
key=A2
loop_end=281797
loop_mode=loop_continuous
loop_start=76099
loop_xfade=54324
lovel=0
lpc=P5dNQqhqCMPkAQZDq7WNwtCML0IDIwfC3ndJQbBsGcE3BbZBwPS1wb9PIUG81MdAmdGiwThgyEGm3nDB/Y9CQBjBYsBiODRBZihXwezYgUDTr8JAkCyWwHAvK8BDXzdA
lpc_rms=-32.10
sample=SoloCello_sustain_MF_A2.opus
</region>

<region>
end=302743
hivel=127
key=A#4
loop_end=280264
loop_mode=loop_continuous
loop_start=75685
loop_xfade=54028
lovel=0
lpc=kPTUQJInY8HWY09BRXX5wK4jyUCNuOvAa8XtQAwXusB+cmtAp6IfwKbW7T+Jv5e+xfzAv2fJCkBUQADAIySqP4Okhr/F76Q/InaXvvb9Tr8shkw/qu6HPeSORL7a5Ss+
lpc_rms=-43.33
sample=SoloCello_sustain_MF_A#4.opus
</region>

<region>
end=292211
hivel=127
key=A#3
loop_end=270514
loop_mode=loop_continuous
loop_start=73052
loop_xfade=52149
lovel=0
lpc=klHfQSdyiMKH0YhCtHcwwpJ++kGQatnBzfSlQdTIbMFWIDZBt98AwfoPlUCEjsK/SKfVwCxWR0HcCPjATU3yPgMegUDAyNnAyNj2QMLpAMGIXM5AElfIvnNLy8D04Z1A
lpc_rms=-38.65
sample=SoloCello_sustain_MF_A#3.opus
</region>

<region>
end=293946
hivel=127
key=A#2
loop_end=272120
loop_mode=loop_continuous
loop_start=73486
loop_xfade=52458
lovel=0
lpc=VaY1Qk1K4cJg/r1Cm1QNwoTYv0H6rO3Ben+KQaw53sDnJAtBJtYzwYdPlUB24bpAJKhnwQ/LtkEXmInBVUc/QDxOeb6UMuRAMG/HwPrEiMBFBaxAsak9vxkR9r7Q+iU/
lpc_rms=-30.71
sample=SoloCello_sustain_MF_A#2.opus
</region>
</group>

<group>
ampeg_attack=0.01
group_label=FF
lpc_hicc1=127
lpc_locc1=85

<region>
end=305163
hikey=B6
hivel=127
lokey=G5
loop_end=282505
loop_mode=loop_continuous
loop_start=76290
loop_xfade=54461
lovel=0
lpc=LiCHQF9J2MA2mKpAwG1bwPw6YkD+BivAoXXjPzORNb8AOS4/26tuv1yKlD94LvC+AP5+Pvgx/b47T5U/H+iGvwzBbz/j1DO/jyoePxgrFjxIuJU+UT9av18YNz9W/Nk+
lpc_rms=-39.94
offset=4565
pitch_keycenter=G5
sample=SoloCello_sustain_FF_G5.opus
</region>

<region>
end=309659
hivel=127
key=G4
loop_end=286667
loop_mode=loop_continuous
loop_start=77414
loop_xfade=55263
lovel=0
lpc=v7bJQH82SsHjpjFBSqcEwf7HAEEsSNPA1X6AQKJPLsA0JTFAv1NGwN11LkCXZBjA0a09P9cqaT8aNSy/4IjsPhUiDL8Ru2A+S2WSPmwzCr/f9l8+VEUcPw6JEr/7Q6c+
lpc_rms=-36.75
offset=17840
sample=SoloCello_sustain_FF_G4.opus
</region>

<region>
end=296183
hivel=127
key=G3
loop_end=274191
loop_mode=loop_continuous
loop_start=74045
loop_xfade=52858
lovel=0
lpc=ZLswQWGYxcEQmapBOrpKwRw9IEFQROHAUimEQN3HSMBivPU/mpYkwOjZa0D6BOi/o34awOq0pEASRHTA00feP/NeTb8gbco+LTIZPhV4j78r68w/nJJkvixjb79V2cs+
lpc_rms=-37.17
offset=6917
sample=SoloCello_sustain_FF_G3.opus
</region>

<region>
end=293253
hivel=127
key=G2
loop_end=271479
loop_mode=loop_continuous
loop_start=73313
loop_xfade=52335
lovel=0
lpc=YVkwQmb93cIbjr5CyrUdwjVOCEJkiA3C0iBcQbc5zcAKtjNBAedWwablRkGnmaLAYpIRwb40oUErJXPB3GAPQXaMzMDnvCfAgAT2QLRt2MBLi9lAuJoVwADBasBl1yFA
lpc_rms=-30.55
offset=1174
sample=SoloCello_sustain_FF_G2.opus
</region>

<region>
end=300094
hivel=127
key=G#4
loop_end=277812
loop_mode=loop_continuous
loop_start=75023
loop_xfade=53556
lovel=0
lpc=UsEFQRzzi8HwW3pBkBM+wfFYN0HzLyTBra2/QP9+TsDGloJA125nwB92TEA3ImzAY4UTQLab+b5opt4+IH4vv1DoRL+clwxAIZxpv8YUIT/M79+/E4/JP0SUk7/2NBc/
lpc_rms=-31.48
offset=3896
sample=SoloCello_sustain_FF_G#4.opus
</region>

<region>
end=297634
hivel=127
key=G#3
loop_end=275535
loop_mode=loop_continuous
loop_start=74408
loop_xfade=53117
lovel=0
lpc=7d6lQVOPPMLKPCNCtnjAwVwemEHBwmjB6W4BQQYdnsAFVFRA45J+wOI7t0A+aErAvbV0wPdkHEFeJADBiyoNQMpNWj4UFpu+jt6iP/qTLsDhfnxAhO24v27QAcC9/6s/
lpc_rms=-31.41
offset=4029
sample=SoloCello_sustain_FF_G#3.opus
</region>

<region>
end=300490
hivel=127
key=G#2
loop_end=278179
loop_mode=loop_continuous
loop_start=75122
loop_xfade=53627
lovel=0
lpc=IFd3QqpwG8ONdvpCIzgTwsJ3A0KH0SzCSuhqQTV13sCQsKJB7Pa/wcy5i0HowvbAN/uZwH/vhEH/bhfBT3ONwPeaAUEiQTTBc+OHQfw5hsHnEdxAgc+qQOJ5D8HAImhA
lpc_rms=-25.77
offset=2853
sample=SoloCello_sustain_FF_G#2.opus
</region>

<region>
end=302123
hivel=127
key=F5
loop_end=279690
loop_mode=loop_continuous
loop_start=75530
loop_xfade=53918
lovel=0
lpc=EngNQQEmbsEYVC5BM8gAwaERGUGLoNvAzNlpQArsFcDiXg1A+DWAv7NSlz5k+Ms+7d/Ev6r/QUB0cpS/AfgpPza2A8Dq0w9AeXqPv7TZEEAfQka/AcI+vqHD1r+MGBlA
lpc_rms=-34.53
offset=5919
sample=SoloCello_sustain_FF_F5.opus
</region>

<region>
end=302392
hivel=127
key=F4
loop_end=279939
loop_mode=loop_continuous
loop_start=75598
loop_xfade=53966
lovel=0
lpc=IRbJQV6KWMKDLUpCozoRwoDrAELQSOrBpL2aQaCgD8H0NppA3H2pwLdjSUDyFJC/GIC7vvzOOkAZ0ozAT+oAQMCGkD54KMM/LyIDwNh2Vz+Lb5w+18+wPxOMmcAfmXtA
lpc_rms=-25.90
offset=3100
sample=SoloCello_sustain_FF_F4.opus
</region>

<region>
end=295864
hivel=127
key=F3
loop_end=273896
loop_mode=loop_continuous
loop_start=73966
loop_xfade=52801
lovel=0
lpc=fI0pQgelzMLqA8ZCjbaFwhOpW0IwmDTC4xnjQaHkmcEIAXtBZ549wRgByEDSdqXAcZlSwENtoUGgXqbB2kMIQSuhrr9/k6NAyW/wv4rf2MAfYsFAAZJCwFKMq0DOxnfA
lpc_rms=-28.07
offset=968
sample=SoloCello_sustain_FF_F3.opus
</region>

<region>
end=296041
hivel=127
key=F2
loop_end=274060
loop_mode=loop_continuous
loop_start=74010
loop_xfade=52832
lovel=0
lpc=1aq3Qi8fasMEGj9DBho3ws10tEFufjTC31O5Qevzn8HuBQFCqar6wWOb+EEEVOvBUCbsQHI890GCdwrCPAFLQeGnB8GoNTJBZ5tWwG9OksDijEJAGkIjQQVEpMF40CNB
lpc_rms=-22.99
offset=2913
sample=SoloCello_sustain_FF_F2.opus
</region>

<region>
end=300110
hivel=127
key=F#5
loop_end=277827
loop_mode=loop_continuous
loop_start=75027
loop_xfade=53559
lovel=0
lpc=0xa4QPgmF8FBpPdAh86pwJ8pokD0D17AyqGJPyyZqb7fOlc/ZK8wvww7gT/90ma/HQlQPi3PPz8Bol2+dyeHPjdFxL2wrKo9tjk3PzuSkb4BcbK+iRdxP8DJqL6Vlw0+
lpc_rms=-38.81
offset=5528
sample=SoloCello_sustain_FF_F#5.opus
</region>

<region>
end=299317
hivel=127
key=F#4
loop_end=277093
loop_mode=loop_continuous
loop_start=74829
loop_xfade=53417
lovel=0
lpc=Ev6mQFv+IcGQSAdBbPXBwP+2v0D5j5zAXnUKQFyHnb+iYqY/PdfOvvoCWb6lZGK+7AqGPjBKAD+72E4+9M+5vyVhqD8HapC/bVi4Pytzdb9bCiU+aSWIvmtBUT/7zM++
lpc_rms=-37.70
offset=9424
sample=SoloCello_sustain_FF_F#4.opus
</region>

<region>
end=297740
hivel=127
key=F#3
loop_end=275633
loop_mode=loop_continuous
loop_start=74435
loop_xfade=53136
lovel=0
lpc=ntFLQY5N9cEj3PBB9VulwQn+hkFM/lDBbG7xQFhnkMCc6X1Ai76kwFgMq0A9wkLAnE6GvzudmUCvN4/ADUTZP/Ipcb+5NL0/GhGnPjriOsAwaxNA74igPq69079oxFo/
lpc_rms=-38.20
offset=6922
sample=SoloCello_sustain_FF_F#3.opus
</region>

<region>
end=295012
hivel=127
key=F#2
loop_end=273107
loop_mode=loop_continuous
loop_start=73753
loop_xfade=52649
lovel=0
lpc=Jc49QkiV8cJrfNFC/7cqwtvND0K1lBvC6faMQVQnCMH5vTBBLfdnwS8PQ0HJPIi+KL5nwTSlzEFbK63BDMdCQWtN6sD71ag/lchTQBjT+8AcaDtB8T/FwCmMs78+e9A/
lpc_rms=-27.91
offset=2022
sample=SoloCello_sustain_FF_F#2.opus
</region>

<region>
end=290711
hivel=127
key=E5
loop_end=269126
loop_mode=loop_continuous
loop_start=72677
loop_xfade=51881
lovel=0
lpc=LUUhQV4GocEnr49Bbeo/wTzIOkEO+iXBemfWQI10ccDS7wpAH8XHv4lcsj9lydi+CMhfvh7skz4wdCQ/mxnDv7i77D9EUq6+B9NxP/5lur/bTJs/wKE2v/QSgj+MFWm+
lpc_rms=-31.28
offset=6452
sample=SoloCello_sustain_FF_E5.opus
</region>

<region>
end=300178
hivel=127
key=E4
loop_end=277890
loop_mode=loop_continuous
loop_start=75044
loop_xfade=53571
lovel=0
lpc=/VQfQUR/pMGDaohBOqI1wcSxKEEClQ/Btu6mQCT2ZsAulYVAuY6EwJfWK0Beru2/fHe6P29Huj84AFLA10I+QEJTM8CptR5AL3Djv/t05j+0J6e/PkVePw4Lh78mk+s+
lpc_rms=-34.76
offset=1539
sample=SoloCello_sustain_FF_E4.opus
</region>

<region>
end=297597
hivel=127
key=E3
loop_end=275500
loop_mode=loop_continuous
loop_start=74399
loop_xfade=53110
lovel=0
lpc=0HEVQkT/usIigrVCGhljwiT8K0J6iAjCKXuuQdYthsFgaUhB1JMOwRjaKkFeFg7BpCJBwGMbh0GiAY3BpSscQYaTrsDeVd5AJg/WwMzPbEAdp+q/dfeCv3y+jT8gTpg+
lpc_rms=-29.83
offset=6502
sample=SoloCello_sustain_FF_E3.opus
</region>

<region>
end=295723
hivel=127
key=E2
loop_end=273765
loop_mode=loop_continuous
loop_start=73930
loop_xfade=52776
lovel=0
lpc=vqWFQr8xLcOXCxlDeUd1wimMN0Lry0zCvqfiQduBycE4++JBAK2SwbVEgkFcOYjBFptkwGRHCEKH7/rBdkI3QQcu6MDRK7xAu7ORv5xEnD88frrAfnplQdMFk8G4XQVB
lpc_rms=-25.08
offset=2648
sample=SoloCello_sustain_FF_E2.opus
</region>

<region>
end=292078
hivel=127
key=D5
loop_end=270391
loop_mode=loop_continuous
loop_start=73019
loop_xfade=52125
lovel=0
lpc=7vnGQGIIOsGU8CJBO8zewE0kv0B+jafAI6RzQCc3+L//rrQ/JDwTwGXrPEBiiBvA6DsvPyDtdj9IIHS/pXRkPsS4Yr2D+Qm9M3qtP1wuwr+kjL0/82MGv1tOjDzjeAo+
lpc_rms=-34.59
offset=8432
sample=SoloCello_sustain_FF_D5.opus
</region>

<region>
end=295957
hivel=127
key=D4
loop_end=273982
loop_mode=loop_continuous
loop_start=73989
loop_xfade=52817
lovel=0
lpc=RcUbQRaSrsGa7qJBgv9bwTLbPUENay3BB0jZQLaEb8BCYDxAT6Tiv6XLz77h/BRATVBjwNhTk0DGsJrAsO9+QOhuN8AQ1jRAAgwhwFbVpz8e85E8yJRmv8clgT8xJtu+
lpc_rms=-33.68
offset=4379
sample=SoloCello_sustain_FF_D4.opus
</region>

<region>
end=306057
hivel=127
key=D3
loop_end=283332
loop_mode=loop_continuous
loop_start=76514
loop_xfade=54620
lovel=0
lpc=7f6hQRa4TcIjC05C+2cGwgg/0UFbMJ7BGbU4QfKYGMF65BZBs07rwBzmfkDdS66+zkC5wIM7QUFCZRDB3bD9PpeWGkB/QVi+8TnKPxjXh8DUUT5A5/4CwB2nB0AKvHG/
lpc_rms=-34.36
offset=4548
sample=SoloCello_sustain_FF_D3.opus
</region>

<region>
end=305647
hivel=127
key=D2
loop_end=282953
loop_mode=loop_continuous
loop_start=76411
loop_xfade=54547
lovel=0
lpc=qEQKQl6Xq8JLA4xC/XSnwfZ7V0FxRZDBwTQYQalxHsEGYkxBBt4QwamM50DI/erAd+czvl0CUUHIrz7B374XQKgLjL5mg0VAgNd/wEtxiT+NjK++MK2qQCk7/sC1cF9A
lpc_rms=-29.69
offset=1190
sample=SoloCello_sustain_FF_D2.opus
</region>

<region>
end=289463
hivel=127
key=D#5
loop_end=267970
loop_mode=loop_continuous
loop_start=72365
loop_xfade=51658
lovel=0
lpc=WZnrQOVXQsFY0hZB8MXgwEIW3kAejqvAY9NPQOM4CcBP+d0/FmTRv9HDIEDCWwfAmNmBPohRV78aIbw/OQgqP5NGIL+lVPU9l1K0vqotkj84Khy/i+NIPwrPrb5Tw9o9
lpc_rms=-35.28
offset=7711
sample=SoloCello_sustain_FF_D#5.opus
</region>

<region>
end=301229
hivel=127
key=D#4
loop_end=278863
loop_mode=loop_continuous
loop_start=75307
loop_xfade=53758
lovel=0
lpc=OmaMQWcAHcK9JxhCFVDmwcP9xkGwSa3BnJ5JQRhDh8BeZA9AhfkRwPEGhj91lLM+tRYawF29wkChRvHAwo28QA51ksCr6ZtAwbacwJ/ng0AnqfW/l+RnP+uYmr9PIS0/
lpc_rms=-29.50
offset=2300
sample=SoloCello_sustain_FF_D#4.opus
</region>

<region>
end=297966
hivel=127
key=D#3
loop_end=275842
loop_mode=loop_continuous
loop_start=74491
loop_xfade=53176
lovel=0
lpc=tDi4QfIjZsL5UmZCZMgbwqmU+EFTksfBx2uCQYh3RMGYEDhBY5Q1waZVLEEFvgTBDoMeviORJ0H4HzHBjhCdQKkUs7/XA5s/HE6bP7pbhsCOAVBAQn8bv6PDj7/bBWM/
lpc_rms=-32.64
offset=5286
sample=SoloCello_sustain_FF_D#3.opus
</region>

<region>
end=301998
hivel=127
key=D#2
loop_end=279575
loop_mode=loop_continuous
loop_start=75499
loop_xfade=53896
lovel=0
lpc=v4oZQhTnwcJcnqZCA1gAwlkwtkGcmLnBU70WQf2o2cAPJBFB4ZLgwMUf1EBE6qPA44VVwNlAZEHm3zrBnul0P6+Tp0BwrNzAQQPoQO4AE8ETX9dAmi3LPytvz8Cn/VlA
lpc_rms=-29.68
offset=1167
sample=SoloCello_sustain_FF_D#2.opus
</region>

<region>
end=295214
hivel=127
key=C5
loop_end=273294
loop_mode=loop_continuous
loop_start=73803
loop_xfade=52685
lovel=0
lpc=j/AKQSEdi8F203JB4XsqwWJuM0Ep0iPBuWuhQGci3r/bHR9AGCFdwDj2KkCeLuG/gLZRP7kk7j4idS2/PIODP+n/vb8iwiU/cDsPP1dW1b474AU/TfWcviY0fj4ZHmI+
lpc_rms=-32.15
offset=2077
sample=SoloCello_sustain_FF_C5.opus
</region>

<region>
end=307363
hivel=127
key=C4
loop_end=284541
loop_mode=loop_continuous
loop_start=76840
loop_xfade=54853
lovel=0
lpc=7pXSQEiIZ8FKillBW6YUwRymB0Egfv7A1Q+WQORnvb8IhRg/c0Rov5wUND6jqIM/69y6vz1UCEC9KyLAmDa8Pz38Cr8bhTs/95hFv9pHAj/22w+/JOQFP49jx74xGL4+
lpc_rms=-38.18
offset=9333
sample=SoloCello_sustain_FF_C4.opus
</region>

<region>
end=304685
hivel=127
key=C3
loop_end=282062
loop_mode=loop_continuous
loop_start=76171
loop_xfade=54375
lovel=0
lpc=SKNmQTr8BMI1u+5B0xaTwX+/YkEnlh3BACWyQPTFcsC1ozlAnoAiwIl/9D/bqbm+MFSNwPrVBEHoV7DA6ewkQPRnAsCZcoE/RRVyP50hrb8RncS+WeVNPxIMiT4XcO6+
lpc_rms=-36.97
offset=1752
sample=SoloCello_sustain_FF_C3.opus
</region>

<region>
end=294684
hivel=127
key=C2
loop_end=272804
loop_mode=loop_continuous
loop_start=73671
loop_xfade=52590
lovel=0
lpc=UVVaQj07EcMuAg5DkIyRwqPRPEJJOzrCfxX+QRTkmMGl3FhByQM+wbErLkHdmTTATW1KwUnU3UGfGd3BIgx/QV5ktcANvGRAuRo6wFbPIMChCdQ/BxEHQdfKWMGDbchA
lpc_rms=-27.06
offset=9093
sample=SoloCello_sustain_FF_C2.opus
</region>

<region>
end=291244
hivel=127
key=C#5
loop_end=269619
loop_mode=loop_continuous
loop_start=72811
loop_xfade=51976
lovel=0
lpc=HfbuQIBATMH2hTBBJIkLwacPDUHggcfAB3ALQDtMEb/3+pI/vnXzv9JGG0Cg6BnAdUq9P+tuyb4cw5S+C6uTPgAvMz5k2/y+geGqP9Ekjr9AWMs/6bxzv49i0D47GBI/
lpc_rms=-34.33
offset=4476
sample=SoloCello_sustain_FF_C#5.opus
</region>

<region>
end=293772
hivel=127
key=C#4
loop_end=271959
loop_mode=loop_continuous
loop_start=73443
loop_xfade=52427
lovel=0
lpc=wS5KQRvm18H4FcZBqMmbwUKPk0F+vHDB6csOQYIGqsClcH1A7vMvwL1gKkDmVlLAsfSaP43glT/aB8C/naOfP7ZqeL+ok5w/AgrGvnIeRL7Afpe+cuhFP3d9CsAaneQ/
lpc_rms=-33.15
offset=3408
sample=SoloCello_sustain_FF_C#4.opus
</region>

<region>
end=299297
hivel=127
key=C#3
loop_end=277074
loop_mode=loop_continuous
loop_start=74824
loop_xfade=53413
lovel=0
lpc=NSrZQYQyiMI4n4RClRwjwg6G8UGovrLB/VMpQfe33sB4ZQRBy5gFwYbozkCbtF27+AX+wGp3F0GnhWzA2vp0v7D6lr/H3JlAmL2Jv4ASDMAkhxG/8WVIQOlsY8DN4dU/
lpc_rms=-32.02
offset=2750
sample=SoloCello_sustain_FF_C#3.opus
</region>

<region>
end=301247
hivel=127
key=C#2
loop_end=278879
loop_mode=loop_continuous
loop_start=75311
loop_xfade=53761
lovel=0
lpc=PQNWQgI+DMN39ABDCrJhwhARGULnHhbC/59sQRfD/sDTiH9BgHSGwceBMEFKworAUakPwS+33kH1ItjBdmw+QTOeDcBCI4m/ghRFQOjOrsAFWDk/jS4WQQdDPcGfm5lA
lpc_rms=-28.70
offset=1195
sample=SoloCello_sustain_FF_C#2.opus
</region>

<region>
end=309057
hivel=127
key=B4
loop_end=286109
loop_mode=loop_continuous
loop_start=77264
loop_xfade=55155
lovel=0
lpc=n/8kQXw3mME4J39BbSpNwUmqWEF8yDbBq473QAf55sD9eNZAoUalwFRNekB3x0HAHCAzP9yzUj7nSiw/0/QWPzdCAsChDgBA1FnrvfD0Ij/bjBS/9sSFP4SFLcADHuc/
lpc_rms=-33.00
offset=4557
sample=SoloCello_sustain_FF_B4.opus
</region>

<region>
end=298544
hivel=127
key=B3
loop_end=276377
loop_mode=loop_continuous
loop_start=74636
loop_xfade=53279
lovel=0
lpc=fQ3mQM3qbsEJXFpBxR0dwfu6AUF/ycjAeOAsQKSvur5JGKc+ZNKrvrtkir4C2yI/btrmvwSdKkBEEvC/JULwPjVM0723oTo/C+MCv5On0z7p81C+4fMWPXiYtT6uHdO+
lpc_rms=-37.13
offset=3333
sample=SoloCello_sustain_FF_B3.opus
</region>

<region>
end=292741
hivel=127
key=B2
loop_end=271005
loop_mode=loop_continuous
loop_start=73185
loop_xfade=52243
lovel=0
lpc=ftcNQt/Qu8IV77xC5HBZwnn4GEKunA7Cufe7QZ2VRcEubBRBLcbUwF4g5z8yXYFANAyHwaBBzEGjfHfBE+eKQAkMVMAA6AtBzlRtwcSHS0Hm7AHB5/ruQAdyssBE3d8/
lpc_rms=-27.96
offset=2620
sample=SoloCello_sustain_FF_B2.opus
</region>

<region>
end=303284
hivel=127
key=A4
loop_end=280765
loop_mode=loop_continuous
loop_start=75821
loop_xfade=54125
lovel=0
lpc=OKWzQDRyMsFU9BRB8TrhwJ0j8kC7vcTAFFdZQPdc8L/2nLs/3qpov9ZhOz8haaS/yc+hP2pzJb6qnAS/3ly+PrRIRL6ywY2+Ull8P+lSGb9+Bqc91CXFPb/dXL54wzk+
lpc_rms=-36.78
offset=2500
sample=SoloCello_sustain_FF_A4.opus
</region>

<region>
end=292592
hivel=127
key=A3
loop_end=270867
loop_mode=loop_continuous
loop_start=73148
loop_xfade=52217
lovel=0
lpc=b7GKQXorJsJOKR5CAl3PwcI9pEENn3TBcNgjQcQaIcGAThZBKi71wMes0UAwqLDActWeP81H0UCAOQzBF5R9QO6AGL6XUew+snm8v9lhiT+abXo/C1Twv9PhtLymxTE/
lpc_rms=-32.96
offset=6055
sample=SoloCello_sustain_FF_A3.opus
</region>

<region>
end=308916
hivel=127
key=A2
loop_end=285979
loop_mode=loop_continuous
loop_start=77229
loop_xfade=55130
lovel=0
lpc=D3QDQk+pqMICmqZCozRKwpuBGUJMeAXCWsubQXVuJMFNLiRBUmMUwU4Cl0AQs2NAeSyIwYF1oEGJfPzAlz02Py7Kn7/TQiJA+wC5v8dlLj47iJDA0PzbQFUdX8DjgCY/
lpc_rms=-29.44
offset=2320
sample=SoloCello_sustain_FF_A2.opus
</region>

<region>
end=295345
hivel=127
key=A#4
loop_end=273416
loop_mode=loop_continuous
loop_start=73836
loop_xfade=52708
lovel=0
lpc=QLWUQBoiDMF9kflAkgCuwF6bq0B5bajAPa5UQAMxrr88UEA/YimRv7MEaD/ffi69Fr9Fv1Xgnz/PZsa/ndTcP3SB9L8di/U/cnujvzQEdz8AbJi/DPixP+6AS79o1g8/
lpc_rms=-36.65
offset=6839
sample=SoloCello_sustain_FF_A#4.opus
</region>

<region>
end=301152
hivel=127
key=A#3
loop_end=278791
loop_mode=loop_continuous
loop_start=75288
loop_xfade=53744
lovel=0
lpc=sNYaQWqtp8HDDpxBPNhZwSeZNkFckh7BUiu8QDGLXsBZIpFAVK+twDFThUBUHULA3foHP641EUDj7xrA2LTnP4yyCMDJvDJA/i7sv/mXkz6i+fG95IEzP6JZRb85sdg+
lpc_rms=-34.92
offset=1979
sample=SoloCello_sustain_FF_A#3.opus
</region>

<region>
end=298718
hivel=127
key=A#2
loop_end=276538
loop_mode=loop_continuous
loop_start=74679
loop_xfade=53310
lovel=0
lpc=Ti5AQgOv/8Khg+1Chr9PwgejFUKmJSDCYLGOQRM68MDAOlhBnD9rwYiy/UDHX7dAg2iowW1l2kGWJqjBr+pjQamHLcE9QGpAS2qnQFNDNMHkAR9BEmtJP0sg8MAfLmJA
lpc_rms=-28.79
offset=4385
sample=SoloCello_sustain_FF_A#2.opus
</region>
</group>